<?xml version="1.0" encoding="UTF-8" standalone="no"?>
<svg xmlns="http://www.w3.org/2000/svg" class="card" face="1B" height="94mm" preserveAspectRatio="none" viewBox="-132 -180 264 360" width="69mm"><rect x="-240" y="-336" width="480" height="672" fill="white"></rect><rect width="239" height="335" x="-119.5" y="-167.5" rx="12" ry="12" fill="white" stroke="black"></rect><rect width="204.026" height="301.978" x="-102.013" y="-150.989" fill="black"></rect><path d="M0,0v-1h1v1h1v-1v-1h1v1h1h1v-1h1v-1h1v-1h1v1v1v1v1h1v-1v-1v-1h1v-1v-1h1h1h1v-1h-1h-1h-1v-1h-1v1h-1v1h-1v-1v-1h-1v-1v-1h1v-1v-1v-1h-1v-1h1v-1v-1v-1h-1v-1v-1h1h1v1h-1M8,-17v1h1v-1v-1h1v1h1v-1h1v1v1h-1h-1v1h1v1h-1h-1v1h-1v1v1v1v1h1v-1h1h1v1h-1v1h-1h-1h-1M8,-8v1M10,-8h1v1h1v-1h1v-1h1v-1h-1v-1v-1h-1h-1v1h-1v-1h-1v1M10,-12v-1h1h1h1v-1h1v1h1h1v-1v-1v-1v-1v-1v-1v-1h-1v-1h-1h-1v-1h1v-1v-1h-1h-1v1h1M12,-23v1v1v1h-1h-1v1h1h1h1v1h1v-1v-1h-1M14,-19h1v1v1v1h-1v-1h-1v1v1h1h1v1M13,-15h-1v1M10,-19h-1v-1h-1h-1h-1v-1h1v-1h1h1v-1v-1h-1v1h-1h-1v1h-1v1v1v1h-1v1h1v1v1v1h-1h-1v-1h1v-1h-1v-1h-1v-1h1v-1h1v-1h-1v-1h-1v-1h-1v-1h1h1h1v1h1v-1h1h1M4,-23h-1M1,-24h-1v1h-1v1h-1v-1h-1v-1h1h1M-3,-24h-1h-1h-1v1h1v1h1v1v1h1h1h1v-1h-1h-1v-1M-1,-21h1v1v1h1v1h-1h-1h-1h-1v-1h-1h-1h-1v-1v-1h-1h-1v-1h-1h-1v-1v-1h1v1h1v-1h1v1v1h1M-10,-24h-1h-1h-1v1v1h1v-1h1v1v1v1h-1v-1h-1h-1v-1h-1h-1v1v1v1v1v1h1v1h-1v1v1h1v-1h1h1v1h-1v1h1v1h1v1h-1v1h-1v1v1h1h1v1h1h1h1v-1v-1v-1h-1v-1v-1h-1v1v1h-1v1h1v1h1v-1M-12,-9h-1M-11,-12v-1h-1v-1h1v-1h-1v-1h1h1v-1v-1v-1v-1h1v1v1h1v1h-1v1v1v1h1h1v-1v-1h-1v1M-7,-16h1h1h1h1v-1h-1v-1h-1v1h-1h-1v-1v-1h-1v-1h1M-7,-18h1M-3,-17h1v1v1h1h1v1h-1h-1v1v1h-1h-1h-1h-1h-1v1h1h1h1h1v1h-1h-1v1h-1v-1h-1h-1v1v1h1v-1M-7,-8v1v1v1h-1v-1v-1M-8,-6h-1h-1v1h1v1v1h1v1h-1h-1h-1v-1h-1h-1v-1v-1h1v-1h-1h-1v-1h-1h-1v-1v-1v-1h1v1v1M-15,-10v-1v-1v-1h-1v1v1M-15,-12h1v1M-16,-7v1v1h1v1h-1v1h1v1h1h1h1v1h-1h-1h-1v1h1h1h1v1h-1v1h1v1h-1h-1h-1v-1h-1v-1h1h1v1M-16,1v-1v-1v-1M-16,2v1v1h1h1v1v1h-1h-1v-1h1M-16,6v1v1v1h1v1h-1v1v1h1h1v-1h-1M-15,9v-1h1v-1h-1M-14,7h1M-14,4h1h1h1v-1v-1v-1h1v-1v-1h1h1h1h1v1v1h-1v1M-7,1v-1M-6,0h1h1v-1h-1v-1v-1v-1v-1h-1v-1h1h1h1h1h1v-1h-1h-1h-1v-1v-1h1h1v-1h1v-1h-1M-1,-11v-1h1v-1h1v1h1h1v1h-1h-1v1h-1v1v1h1h1v-1h-1M2,-9h1v-1h1h1v1h-1v1v1v1v1h1h1v1h-1v1h-1h-1h-1h-1v-1v-1h1v-1h-1v-1h1h1v-1M3,-7v1v1v1h1M3,-4h-1M1,-7h-1v1v1h-1v1v1v1v1h-1v-1v-1h-1v1h-1v-1v-1v-1h1v1h1v-1M-3,-2v1v1M-1,-2h1h1M0,-2v-1v-1M4,-3v1M6,-5v-1h-1v-1v-1M5,-10v-1v-1h-1v1M4,-12v-1h-1v-1h1h1v1M5,-14h1v-1M3,-14h-1v1M2,-14v-1v-1h-1v1v1M1,-16v-1h-1v1h-1v-1M1,-17h1M5,-11h1v1M3,-10h-1M0,-8h-1h-1h-1M-1,-8v-1M0,-10v-1M0,-13h-1M-4,-8h-1h-1v1h1M-6,-5v1h-1v1v1h1v-1M-7,-4h-1M-10,-1h-1v1M-10,1v1M-14,-2v-1v-1v-1M-15,-5v-1M-14,-7h1M-12,-6h1v1v1h1v1M-11,-4h-1M-8,-10v-1h-1v-1v-1h-1v-1v-1M-9,-13h1h1h1v-1v-1h1h1v1v1h1v-1v-1M-4,-13h-1v-1M-8,-13v1M-9,-20v-1h-1M-10,-19h-1h-1v1h1v1h-1h-1h-1v-1h-1v-1v-1h1v1h1v1M-13,-19v-1M-15,-20v-1M-14,-17v1h1M-16,-22v-1h1h1v-1h-1h-1M-6,-21h1v1M-3,-19h1h1M1,-19v-1v-1h1v1M1,-21v-1h-1M-4,-22v-1M3,-22h1M5,-19h1h1h1M9,-24h1v1v1v1h1v-1v-1v-1M10,-21h-1h-1M14,-24h1v1h1v-1M16,-23v1v1M16,-22h-1M11,-11h1v1v1M8,-13v-1v-1h1M8,-5h1v1" transform="scale(6.122)" fill="none" stroke="white" stroke-width="0.674" stroke-linecap="square" stroke-linejoin="miter"></path><path d="M0,0v-1h1v1h1v-1v-1h1v1h1h1v-1h1v-1h1v-1h1v1v1v1v1h1v-1v-1v-1h1v-1v-1h1h1h1v-1h-1h-1h-1v-1h-1v1h-1v1h-1v-1v-1h-1v-1v-1h1v-1v-1v-1h-1v-1h1v-1v-1v-1h-1v-1v-1h1h1v1h-1M8,-17v1h1v-1v-1h1v1h1v-1h1v1v1h-1h-1v1h1v1h-1h-1v1h-1v1v1v1v1h1v-1h1h1v1h-1v1h-1h-1h-1M8,-8v1M10,-8h1v1h1v-1h1v-1h1v-1h-1v-1v-1h-1h-1v1h-1v-1h-1v1M10,-12v-1h1h1h1v-1h1v1h1h1v-1v-1v-1v-1v-1v-1v-1h-1v-1h-1h-1v-1h1v-1v-1h-1h-1v1h1M12,-23v1v1v1h-1h-1v1h1h1h1v1h1v-1v-1h-1M14,-19h1v1v1v1h-1v-1h-1v1v1h1h1v1M13,-15h-1v1M10,-19h-1v-1h-1h-1h-1v-1h1v-1h1h1v-1v-1h-1v1h-1h-1v1h-1v1v1v1h-1v1h1v1v1v1h-1h-1v-1h1v-1h-1v-1h-1v-1h1v-1h1v-1h-1v-1h-1v-1h-1v-1h1h1h1v1h1v-1h1h1M4,-23h-1M1,-24h-1v1h-1v1h-1v-1h-1v-1h1h1M-3,-24h-1h-1h-1v1h1v1h1v1v1h1h1h1v-1h-1h-1v-1M-1,-21h1v1v1h1v1h-1h-1h-1h-1v-1h-1h-1h-1v-1v-1h-1h-1v-1h-1h-1v-1v-1h1v1h1v-1h1v1v1h1M-10,-24h-1h-1h-1v1v1h1v-1h1v1v1v1h-1v-1h-1h-1v-1h-1h-1v1v1v1v1v1h1v1h-1v1v1h1v-1h1h1v1h-1v1h1v1h1v1h-1v1h-1v1v1h1h1v1h1h1h1v-1v-1v-1h-1v-1v-1h-1v1v1h-1v1h1v1h1v-1M-12,-9h-1M-11,-12v-1h-1v-1h1v-1h-1v-1h1h1v-1v-1v-1v-1h1v1v1h1v1h-1v1v1v1h1h1v-1v-1h-1v1M-7,-16h1h1h1h1v-1h-1v-1h-1v1h-1h-1v-1v-1h-1v-1h1M-7,-18h1M-3,-17h1v1v1h1h1v1h-1h-1v1v1h-1h-1h-1h-1h-1v1h1h1h1h1v1h-1h-1v1h-1v-1h-1h-1v1v1h1v-1M-7,-8v1v1v1h-1v-1v-1M-8,-6h-1h-1v1h1v1v1h1v1h-1h-1h-1v-1h-1h-1v-1v-1h1v-1h-1h-1v-1h-1h-1v-1v-1v-1h1v1v1M-15,-10v-1v-1v-1h-1v1v1M-15,-12h1v1M-16,-7v1v1h1v1h-1v1h1v1h1h1h1v1h-1h-1h-1v1h1h1h1v1h-1v1h1v1h-1h-1h-1v-1h-1v-1h1h1v1M-16,1v-1v-1v-1M-16,2v1v1h1h1v1v1h-1h-1v-1h1M-16,6v1v1v1h1v1h-1v1v1h1h1v-1h-1M-15,9v-1h1v-1h-1M-14,7h1M-14,4h1h1h1v-1v-1v-1h1v-1v-1h1h1h1h1v1v1h-1v1M-7,1v-1M-6,0h1h1v-1h-1v-1v-1v-1v-1h-1v-1h1h1h1h1h1v-1h-1h-1h-1v-1v-1h1h1v-1h1v-1h-1M-1,-11v-1h1v-1h1v1h1h1v1h-1h-1v1h-1v1v1h1h1v-1h-1M2,-9h1v-1h1h1v1h-1v1v1v1v1h1h1v1h-1v1h-1h-1h-1h-1v-1v-1h1v-1h-1v-1h1h1v-1M3,-7v1v1v1h1M3,-4h-1M1,-7h-1v1v1h-1v1v1v1v1h-1v-1v-1h-1v1h-1v-1v-1v-1h1v1h1v-1M-3,-2v1v1M-1,-2h1h1M0,-2v-1v-1M4,-3v1M6,-5v-1h-1v-1v-1M5,-10v-1v-1h-1v1M4,-12v-1h-1v-1h1h1v1M5,-14h1v-1M3,-14h-1v1M2,-14v-1v-1h-1v1v1M1,-16v-1h-1v1h-1v-1M1,-17h1M5,-11h1v1M3,-10h-1M0,-8h-1h-1h-1M-1,-8v-1M0,-10v-1M0,-13h-1M-4,-8h-1h-1v1h1M-6,-5v1h-1v1v1h1v-1M-7,-4h-1M-10,-1h-1v1M-10,1v1M-14,-2v-1v-1v-1M-15,-5v-1M-14,-7h1M-12,-6h1v1v1h1v1M-11,-4h-1M-8,-10v-1h-1v-1v-1h-1v-1v-1M-9,-13h1h1h1v-1v-1h1h1v1v1h1v-1v-1M-4,-13h-1v-1M-8,-13v1M-9,-20v-1h-1M-10,-19h-1h-1v1h1v1h-1h-1h-1v-1h-1v-1v-1h1v1h1v1M-13,-19v-1M-15,-20v-1M-14,-17v1h1M-16,-22v-1h1h1v-1h-1h-1M-6,-21h1v1M-3,-19h1h1M1,-19v-1v-1h1v1M1,-21v-1h-1M-4,-22v-1M3,-22h1M5,-19h1h1h1M9,-24h1v1v1v1h1v-1v-1v-1M10,-21h-1h-1M14,-24h1v1h1v-1M16,-23v1v1M16,-22h-1M11,-11h1v1v1M8,-13v-1v-1h1M8,-5h1v1" transform="scale(6.122)rotate(180)" fill="none" stroke="white" stroke-width="0.674" stroke-linecap="square" stroke-linejoin="miter"></path></svg>